<?xml version="1.0" standalone="no"?>
<!DOCTYPE svg PUBLIC "-//W3C//DTD SVG 20010904//EN"
 "http://www.w3.org/TR/2001/REC-SVG-20010904/DTD/svg10.dtd">
<svg version="1.0" xmlns="http://www.w3.org/2000/svg"
 width="209.000000pt" height="294.000000pt" viewBox="0 0 209.000000 294.000000"
 preserveAspectRatio="xMidYMid meet">

<g transform="translate(0.000000,294.000000) scale(0.100000,-0.100000)"
fill="#000000" stroke="none">
<path d="M266 2888 c-23 -33 -21 -123 3 -147 10 -10 25 -21 32 -23 11 -4 12
-9 2 -27 -16 -25 -17 -67 -3 -76 24 -15 4 -49 -83 -136 -97 -99 -136 -163
-174 -285 -17 -55 -18 -110 -18 -814 0 -689 2 -763 18 -844 58 -283 199 -437
438 -475 38 -7 268 -11 572 -11 560 0 605 4 722 61 126 62 220 200 267 394 21
87 22 111 25 830 5 826 5 823 -62 964 -40 85 -129 199 -186 239 -42 30 -47 50
-23 87 15 23 15 27 0 50 -20 30 -20 45 -1 45 8 0 24 9 35 20 25 25 28 114 4
148 l-15 22 -769 0 -769 0 -15 -22z m1542 -70 l3 -58 -761 0 -760 0 0 60 0 60
758 -2 757 -3 3 -57z m-58 -108 c0 -7 -242 -10 -705 -10 -463 0 -705 3 -705
10 0 7 242 10 705 10 463 0 705 -3 705 -10z m20 -60 c0 -7 -248 -10 -725 -10
-477 0 -725 3 -725 10 0 7 248 10 725 10 477 0 725 -3 725 -10z m-20 -78 c0
-22 12 -36 65 -75 36 -26 69 -55 72 -64 4 -10 19 -34 34 -53 35 -43 82 -147
100 -220 11 -44 14 -197 14 -790 0 -714 -1 -738 -22 -830 -53 -238 -140 -360
-297 -419 -101 -37 -196 -43 -726 -39 -437 4 -513 6 -563 21 -87 26 -135 54
-197 116 -97 97 -150 237 -171 455 -6 71 -9 353 -7 781 4 742 1 707 73 852 35
71 143 195 193 222 15 8 22 21 22 41 l0 30 705 0 705 0 0 -28z"/>
</g>
</svg>
